<mxfile host="65bd71144e" modified="2020-11-27T11:03:17.886Z" agent="5.0 (Windows NT 10.0; Win64; x64) AppleWebKit/537.36 (KHTML, like Gecko) Code/1.51.1 Chrome/83.0.4103.122 Electron/9.3.3 Safari/537.36" version="13.6.5" etag="hmgANFrvsr00loqckvCC">
    <diagram id="-3L61t2ZCX92JgCCJ39L" name="Page-1">
        <mxGraphModel dx="1762" dy="988" grid="1" gridSize="10" guides="1" tooltips="1" connect="1" arrows="1" fold="1" page="1" pageScale="1" pageWidth="850" pageHeight="1100" math="0" shadow="0">
            <root>
                <mxCell id="0"/>
                <mxCell id="1" parent="0"/>
                <mxCell id="8" value="" style="rounded=0;whiteSpace=wrap;html=1;dashed=1;fillColor=none;" vertex="1" parent="1">
                    <mxGeometry x="20" y="180" width="800" height="380" as="geometry"/>
                </mxCell>
                <mxCell id="2" value="Item&lt;br&gt;&lt;hr&gt;Class for a to-do task" style="rounded=0;whiteSpace=wrap;html=1;" vertex="1" parent="1">
                    <mxGeometry x="600" y="400" width="160" height="120" as="geometry"/>
                </mxCell>
                <mxCell id="3" value="Flask app&lt;br&gt;&lt;hr&gt;Web framework" style="rounded=0;whiteSpace=wrap;html=1;" vertex="1" parent="1">
                    <mxGeometry x="320" y="200" width="160" height="120" as="geometry"/>
                </mxCell>
                <mxCell id="4" value="Trello.py&lt;br&gt;&lt;hr&gt;Calls the Trello API to gather, update, add and delete Items" style="rounded=0;whiteSpace=wrap;html=1;" vertex="1" parent="1">
                    <mxGeometry x="600" y="200" width="160" height="120" as="geometry"/>
                </mxCell>
                <mxCell id="5" value="View Model&lt;br&gt;&lt;hr&gt;Filters Items based on&amp;nbsp;&lt;br&gt;date, status etc" style="rounded=0;whiteSpace=wrap;html=1;" vertex="1" parent="1">
                    <mxGeometry x="320" y="400" width="160" height="120" as="geometry"/>
                </mxCell>
                <mxCell id="6" value="Index/Layout HTML&lt;br&gt;&lt;hr&gt;" style="rounded=0;whiteSpace=wrap;html=1;" vertex="1" parent="1">
                    <mxGeometry x="40" y="400" width="160" height="120" as="geometry"/>
                </mxCell>
                <mxCell id="7" value="Uses" style="endArrow=classic;html=1;exitX=1;exitY=0.5;exitDx=0;exitDy=0;entryX=0;entryY=0.5;entryDx=0;entryDy=0;" edge="1" parent="1" source="3" target="4">
                    <mxGeometry width="50" height="50" relative="1" as="geometry">
                        <mxPoint x="400" y="530" as="sourcePoint"/>
                        <mxPoint x="450" y="480" as="targetPoint"/>
                    </mxGeometry>
                </mxCell>
                <mxCell id="9" value="Application Code" style="text;html=1;strokeColor=none;fillColor=none;align=center;verticalAlign=middle;whiteSpace=wrap;rounded=0;dashed=1;" vertex="1" parent="1">
                    <mxGeometry x="700" y="540" width="100" height="20" as="geometry"/>
                </mxCell>
                <mxCell id="10" value="Trello" style="whiteSpace=wrap;html=1;aspect=fixed;" vertex="1" parent="1">
                    <mxGeometry x="625" y="10" width="110" height="110" as="geometry"/>
                </mxCell>
                <mxCell id="11" value="Calls API" style="endArrow=classic;html=1;exitX=0.5;exitY=0;exitDx=0;exitDy=0;entryX=0.5;entryY=1;entryDx=0;entryDy=0;" edge="1" parent="1" source="4" target="10">
                    <mxGeometry width="50" height="50" relative="1" as="geometry">
                        <mxPoint x="450" y="420" as="sourcePoint"/>
                        <mxPoint x="500" y="370" as="targetPoint"/>
                    </mxGeometry>
                </mxCell>
                <mxCell id="13" value="Uses" style="endArrow=classic;html=1;entryX=0;entryY=0.5;entryDx=0;entryDy=0;exitX=1;exitY=0.5;exitDx=0;exitDy=0;" edge="1" parent="1" source="5" target="2">
                    <mxGeometry width="50" height="50" relative="1" as="geometry">
                        <mxPoint x="530" y="530" as="sourcePoint"/>
                        <mxPoint x="500" y="370" as="targetPoint"/>
                    </mxGeometry>
                </mxCell>
                <mxCell id="14" value="Updates" style="endArrow=classic;html=1;exitX=0.5;exitY=1;exitDx=0;exitDy=0;entryX=0.5;entryY=0;entryDx=0;entryDy=0;" edge="1" parent="1" source="4" target="2">
                    <mxGeometry width="50" height="50" relative="1" as="geometry">
                        <mxPoint x="450" y="420" as="sourcePoint"/>
                        <mxPoint x="500" y="370" as="targetPoint"/>
                    </mxGeometry>
                </mxCell>
                <mxCell id="16" value="Uses" style="endArrow=classic;html=1;exitX=1;exitY=0.5;exitDx=0;exitDy=0;entryX=0;entryY=0.5;entryDx=0;entryDy=0;" edge="1" parent="1" source="6" target="5">
                    <mxGeometry width="50" height="50" relative="1" as="geometry">
                        <mxPoint x="450" y="420" as="sourcePoint"/>
                        <mxPoint x="500" y="370" as="targetPoint"/>
                    </mxGeometry>
                </mxCell>
                <mxCell id="17" value="Uses" style="endArrow=classic;html=1;exitX=0;exitY=1;exitDx=0;exitDy=0;entryX=1;entryY=0;entryDx=0;entryDy=0;" edge="1" parent="1" source="3" target="6">
                    <mxGeometry width="50" height="50" relative="1" as="geometry">
                        <mxPoint x="450" y="420" as="sourcePoint"/>
                        <mxPoint x="500" y="370" as="targetPoint"/>
                        <Array as="points">
                            <mxPoint x="260" y="360"/>
                        </Array>
                    </mxGeometry>
                </mxCell>
                <mxCell id="18" value="Uses" style="endArrow=classic;html=1;exitX=0.5;exitY=1;exitDx=0;exitDy=0;entryX=0.5;entryY=0;entryDx=0;entryDy=0;" edge="1" parent="1" source="3" target="5">
                    <mxGeometry width="50" height="50" relative="1" as="geometry">
                        <mxPoint x="450" y="420" as="sourcePoint"/>
                        <mxPoint x="500" y="370" as="targetPoint"/>
                    </mxGeometry>
                </mxCell>
                <mxCell id="19" value="Web Browser" style="whiteSpace=wrap;html=1;aspect=fixed;" vertex="1" parent="1">
                    <mxGeometry x="60" y="600" width="110" height="110" as="geometry"/>
                </mxCell>
                <mxCell id="20" value="Displays" style="endArrow=classic;html=1;exitX=0.5;exitY=1;exitDx=0;exitDy=0;" edge="1" parent="1" source="6">
                    <mxGeometry width="50" height="50" relative="1" as="geometry">
                        <mxPoint x="450" y="420" as="sourcePoint"/>
                        <mxPoint x="120" y="600" as="targetPoint"/>
                    </mxGeometry>
                </mxCell>
            </root>
        </mxGraphModel>
    </diagram>
</mxfile>